<?xml version="1.0" encoding="utf-8"?>
<!-- Generator: Adobe Illustrator 27.5.0, SVG Export Plug-In . SVG Version: 6.00 Build 0)  -->
<svg version="1.1" xmlns="http://www.w3.org/2000/svg" xmlns:xlink="http://www.w3.org/1999/xlink" x="0px" y="0px"
	 viewBox="0 0 2200 2200" style="enable-background:new 0 0 2200 2200;" xml:space="preserve">
<g id="background">
	<rect style="fill:#FFFFFF;" width="2200" height="2200"/>
</g>
<g id="Objects">
	<g>
		<path style="fill:#CE2929;" d="M1813.12,1088.441c-26.75-121.97-80.96-243.02-178.72-322.51
			c-123.61-100.51-308.53-117.91-452.47-48.4c-0.29,0.14-0.59,0.28-0.88,0.43c-51.14,24.84-110.96,24.84-162.09,0
			c-0.3-0.15-0.59-0.29-0.88-0.43c-143.96-69.51-328.87-52.11-452.47,48.4c-97.76,79.49-151.97,200.54-178.73,322.51
			c-33.31,151.87-28.53,312.53,20.24,460.3c48.77,147.76,142.26,281.94,268.89,374.78c61.17,44.86,134.4,73.73,210.7,73.73
			c38.47,0,74.69-10.37,105.99-24.29c67.14-29.88,143.97-29.16,211.23,0.45c31.11,13.7,68.09,23.84,109.36,23.84
			c76.31,0,149.52-28.87,210.71-73.73c126.62-92.84,220.11-227.02,268.89-374.78
			C1841.66,1400.971,1846.42,1240.311,1813.12,1088.441z M754.94,819.851c-130.63,86.28-193.97,254.03-216.45,403.45
			c-8,53.22-10.55,107.48-9.29,161.45c0.1,6.62-5.18,12.06-11.8,12.16c-5.15,0.07-9.59-3.13-11.35-7.67
			c-5.2-13.46-9.34-27.29-12.83-41.31c-42.92-176.69,15.25-408.68,171.16-514.42c24.88-16.22,52.47-29.18,81.52-35.46
			C758.96,795.511,765.96,812.461,754.94,819.851z"/>
		<path d="M1425.04,334.871c-47.72,30.57-91.59,67.39-130.36,108.74c-29.97,32.18-57.75,68.04-81.45,105.27
			c-30.5,47.79-55.21,98.95-73.57,152.54c-12.93,3.41-26.31,5.17-39.66,5.17c-7.33,0-14.67-0.53-21.94-1.57
			c24.81-145.51,92.16-283.96,189.88-394.62c14.62-16.81,33.27-35.84,49.37-51.27c10.57-9.88,21.35-19.52,32.39-28.88
			c24.92-21.13,62.74-15.39,80.11,12.28l11.76,18.73C1457.22,286.171,1449.81,319.001,1425.04,334.871z"/>
		<g>
			<path style="fill:#84C13E;" d="M980.599,560.825c4.072,6.6-2.724,14.599-9.861,11.565
				c-80.567-34.256-189.858,1.849-236.828,7.431c-51.91,6.16-108.03,3.07-150.46-28.8c-50.23-37.72-69.37-105.57-89.86-167.12
				c-15.294-45.985-36.567-94.62-70.791-124.697c-8.123-7.139-5.905-20.378,4.125-24.422
				c122.744-49.492,265.341-41.552,381.427,23.249c110.564,61.705,198.014,181.717,237.763,324.245
				c1.916,6.87-7.398,10.984-11.241,4.976C932.21,426.784,798.426,332.904,638.724,304.462c-2.87-0.511-3.829,3.679-1.029,4.489
				C798.312,355.42,909.026,444.808,980.599,560.825z"/>
		</g>
	</g>
</g>
</svg>
